solid OpenSCAD_Model
  facet normal -1 0 0
    outer loop
      vertex -16 9 0.299999
      vertex -16 16 -4
      vertex -16 9 -2.3
    endloop
  endfacet
  facet normal -1 0 0
    outer loop
      vertex -16 6 -4
      vertex -16 9 -2.3
      vertex -16 16 -4
    endloop
  endfacet
  facet normal -1 -0 0
    outer loop
      vertex -16 9 -2.3
      vertex -16 6 -4
      vertex -16 6 -2.3
    endloop
  endfacet
  facet normal -1 0 0
    outer loop
      vertex -16 16 -4
      vertex -16 9 0.299999
      vertex -16 16 4
    endloop
  endfacet
  facet normal -1 0 0
    outer loop
      vertex -16 6 4
      vertex -16 9 0.299999
      vertex -16 6 0.299999
    endloop
  endfacet
  facet normal -1 0 0
    outer loop
      vertex -16 9 0.299999
      vertex -16 6 4
      vertex -16 16 4
    endloop
  endfacet
  facet normal 0 0 1
    outer loop
      vertex 14.5287 10.1184 4
      vertex 16 16 4
      vertex 14.7 11.2 4
    endloop
  endfacet
  facet normal 0 0 1
    outer loop
      vertex 16 16 4
      vertex 14.5287 12.2816 4
      vertex 14.7 11.2 4
    endloop
  endfacet
  facet normal 0 0 1
    outer loop
      vertex 16 16 4
      vertex 14.0316 13.2572 4
      vertex 14.5287 12.2816 4
    endloop
  endfacet
  facet normal 0 0 1
    outer loop
      vertex 16 16 4
      vertex 13.2572 14.0316 4
      vertex 14.0316 13.2572 4
    endloop
  endfacet
  facet normal 0 0 1
    outer loop
      vertex 16 16 4
      vertex 12.2816 14.5287 4
      vertex 13.2572 14.0316 4
    endloop
  endfacet
  facet normal 0 0 1
    outer loop
      vertex 16 16 4
      vertex 11.2 14.7 4
      vertex 12.2816 14.5287 4
    endloop
  endfacet
  facet normal 0 0 1
    outer loop
      vertex 16 16 4
      vertex 10.1184 14.5287 4
      vertex 11.2 14.7 4
    endloop
  endfacet
  facet normal 0 0 1
    outer loop
      vertex -16 16 4
      vertex 7.7 11.2 4
      vertex 7.8713 12.2816 4
    endloop
  endfacet
  facet normal -0 0 1
    outer loop
      vertex -16 16 4
      vertex 10.1184 14.5287 4
      vertex 16 16 4
    endloop
  endfacet
  facet normal 0 0 1
    outer loop
      vertex -16 16 4
      vertex 9.14275 14.0316 4
      vertex 10.1184 14.5287 4
    endloop
  endfacet
  facet normal 0 0 1
    outer loop
      vertex -16 16 4
      vertex 8.36844 13.2572 4
      vertex 9.14275 14.0316 4
    endloop
  endfacet
  facet normal 0 0 1
    outer loop
      vertex -16 16 4
      vertex 7.8713 12.2816 4
      vertex 8.36844 13.2572 4
    endloop
  endfacet
  facet normal 0 0 1
    outer loop
      vertex 7.7 11.2 4
      vertex -16 16 4
      vertex 6 6 4
    endloop
  endfacet
  facet normal 0 0 1
    outer loop
      vertex 6 6 4
      vertex -16 16 4
      vertex -16 6 4
    endloop
  endfacet
  facet normal 0 0 1
    outer loop
      vertex 16 16 4
      vertex 14.5287 10.1184 4
      vertex 16 -16 4
    endloop
  endfacet
  facet normal -0 0 1
    outer loop
      vertex 14.0316 9.14275 4
      vertex 16 -16 4
      vertex 14.5287 10.1184 4
    endloop
  endfacet
  facet normal -0 0 1
    outer loop
      vertex 13.2572 8.36844 4
      vertex 16 -16 4
      vertex 14.0316 9.14275 4
    endloop
  endfacet
  facet normal -0 0 1
    outer loop
      vertex 12.2816 7.8713 4
      vertex 16 -16 4
      vertex 13.2572 8.36844 4
    endloop
  endfacet
  facet normal -0 0 1
    outer loop
      vertex 11.2 7.7 4
      vertex 16 -16 4
      vertex 12.2816 7.8713 4
    endloop
  endfacet
  facet normal 0 0 1
    outer loop
      vertex 6 6 4
      vertex 11.2 7.7 4
      vertex 10.1184 7.8713 4
    endloop
  endfacet
  facet normal 0 0 1
    outer loop
      vertex 6 6 4
      vertex 10.1184 7.8713 4
      vertex 9.14275 8.36844 4
    endloop
  endfacet
  facet normal 0 0 1
    outer loop
      vertex 6 6 4
      vertex 9.14275 8.36844 4
      vertex 8.36844 9.14275 4
    endloop
  endfacet
  facet normal 0 0 1
    outer loop
      vertex 6 6 4
      vertex 8.36844 9.14275 4
      vertex 7.8713 10.1184 4
    endloop
  endfacet
  facet normal 0 0 1
    outer loop
      vertex 6 6 4
      vertex 7.8713 10.1184 4
      vertex 7.7 11.2 4
    endloop
  endfacet
  facet normal 0 0 1
    outer loop
      vertex 11.2 7.7 4
      vertex 6 6 4
      vertex 16 -16 4
    endloop
  endfacet
  facet normal 0 0 1
    outer loop
      vertex 16 -16 4
      vertex 6 6 4
      vertex 6 -16 4
    endloop
  endfacet
  facet normal 1 -0 0
    outer loop
      vertex 16 -16 4
      vertex 16 16 -4
      vertex 16 16 4
    endloop
  endfacet
  facet normal 1 0 0
    outer loop
      vertex 16 16 -4
      vertex 16 -16 4
      vertex 16 -16 -4
    endloop
  endfacet
  facet normal 0 0 -1
    outer loop
      vertex 12.6266 10.7365 -4
      vertex 16 16 -4
      vertex 16 -16 -4
    endloop
  endfacet
  facet normal 0 0 -1
    outer loop
      vertex 16 16 -4
      vertex 12.6266 10.7365 -4
      vertex 12.7 11.2 -4
    endloop
  endfacet
  facet normal 0 0 -1
    outer loop
      vertex 16 -16 -4
      vertex 12.4135 10.3183 -4
      vertex 12.6266 10.7365 -4
    endloop
  endfacet
  facet normal 0 0 -1
    outer loop
      vertex 16 -16 -4
      vertex 12.0817 9.98647 -4
      vertex 12.4135 10.3183 -4
    endloop
  endfacet
  facet normal 0 0 -1
    outer loop
      vertex 16 -16 -4
      vertex 11.6635 9.77342 -4
      vertex 12.0817 9.98647 -4
    endloop
  endfacet
  facet normal 0 0 -1
    outer loop
      vertex 6 6 -4
      vertex 11.6635 9.77342 -4
      vertex 16 -16 -4
    endloop
  endfacet
  facet normal 0 0 -1
    outer loop
      vertex 11.6635 9.77342 -4
      vertex 6 6 -4
      vertex 11.2 9.7 -4
    endloop
  endfacet
  facet normal -0 0 -1
    outer loop
      vertex 11.2 9.7 -4
      vertex 6 6 -4
      vertex 10.7365 9.77342 -4
    endloop
  endfacet
  facet normal -0 0 -1
    outer loop
      vertex 10.7365 9.77342 -4
      vertex 6 6 -4
      vertex 10.3183 9.98647 -4
    endloop
  endfacet
  facet normal -0 0 -1
    outer loop
      vertex 10.3183 9.98647 -4
      vertex 6 6 -4
      vertex 9.98647 10.3183 -4
    endloop
  endfacet
  facet normal -0 0 -1
    outer loop
      vertex 9.98647 10.3183 -4
      vertex 6 6 -4
      vertex 9.77342 10.7365 -4
    endloop
  endfacet
  facet normal 0 0 -1
    outer loop
      vertex 6 6 -4
      vertex 16 -16 -4
      vertex 6 -16 -4
    endloop
  endfacet
  facet normal 0 0 -1
    outer loop
      vertex 12.6266 11.6635 -4
      vertex 16 16 -4
      vertex 12.7 11.2 -4
    endloop
  endfacet
  facet normal 0 0 -1
    outer loop
      vertex 12.4135 12.0817 -4
      vertex 16 16 -4
      vertex 12.6266 11.6635 -4
    endloop
  endfacet
  facet normal 0 0 -1
    outer loop
      vertex 12.0817 12.4135 -4
      vertex 16 16 -4
      vertex 12.4135 12.0817 -4
    endloop
  endfacet
  facet normal 0 0 -1
    outer loop
      vertex 11.6635 12.6266 -4
      vertex 16 16 -4
      vertex 12.0817 12.4135 -4
    endloop
  endfacet
  facet normal 0 0 -1
    outer loop
      vertex 11.2 12.7 -4
      vertex 16 16 -4
      vertex 11.6635 12.6266 -4
    endloop
  endfacet
  facet normal 0 0 -1
    outer loop
      vertex 10.7365 12.6266 -4
      vertex 16 16 -4
      vertex 11.2 12.7 -4
    endloop
  endfacet
  facet normal 0 0 -1
    outer loop
      vertex -16 16 -4
      vertex 10.7365 12.6266 -4
      vertex 10.3183 12.4135 -4
    endloop
  endfacet
  facet normal -0 0 -1
    outer loop
      vertex 9.77342 10.7365 -4
      vertex 6 6 -4
      vertex 9.7 11.2 -4
    endloop
  endfacet
  facet normal 0 0 -1
    outer loop
      vertex 6 6 -4
      vertex 9.77342 11.6635 -4
      vertex 9.7 11.2 -4
    endloop
  endfacet
  facet normal 0 0 -1
    outer loop
      vertex -16 16 -4
      vertex 9.77342 11.6635 -4
      vertex 6 6 -4
    endloop
  endfacet
  facet normal 0 0 -1
    outer loop
      vertex -16 16 -4
      vertex 6 6 -4
      vertex -16 6 -4
    endloop
  endfacet
  facet normal 0 0 -1
    outer loop
      vertex 9.77342 11.6635 -4
      vertex -16 16 -4
      vertex 9.98647 12.0817 -4
    endloop
  endfacet
  facet normal 0 0 -1
    outer loop
      vertex 9.98647 12.0817 -4
      vertex -16 16 -4
      vertex 10.3183 12.4135 -4
    endloop
  endfacet
  facet normal 0 0 -1
    outer loop
      vertex 10.7365 12.6266 -4
      vertex -16 16 -4
      vertex 16 16 -4
    endloop
  endfacet
  facet normal 0 -1 0
    outer loop
      vertex 6 -16 -2.3
      vertex 6 -16 -4
      vertex 9 -16 -2.3
    endloop
  endfacet
  facet normal 0 -1 0
    outer loop
      vertex 9 -16 0.299999
      vertex 6 -16 4
      vertex 6 -16 0.299999
    endloop
  endfacet
  facet normal 0 -1 0
    outer loop
      vertex 6 -16 4
      vertex 9 -16 0.299999
      vertex 16 -16 4
    endloop
  endfacet
  facet normal 0 -1 0
    outer loop
      vertex 16 -16 -4
      vertex 9 -16 0.299999
      vertex 9 -16 -2.3
    endloop
  endfacet
  facet normal 0 -1 0
    outer loop
      vertex 9 -16 0.299999
      vertex 16 -16 -4
      vertex 16 -16 4
    endloop
  endfacet
  facet normal 0 -1 0
    outer loop
      vertex 16 -16 -4
      vertex 9 -16 -2.3
      vertex 6 -16 -4
    endloop
  endfacet
  facet normal 0 1 -0
    outer loop
      vertex 16 16 -4
      vertex -16 16 4
      vertex 16 16 4
    endloop
  endfacet
  facet normal 0 1 0
    outer loop
      vertex -16 16 4
      vertex 16 16 -4
      vertex -16 16 -4
    endloop
  endfacet
  facet normal -1 0 0
    outer loop
      vertex 6 -16 -4
      vertex 6 6 -2.3
      vertex 6 6 -4
    endloop
  endfacet
  facet normal -1 -0 0
    outer loop
      vertex 6 6 -2.3
      vertex 6 -16 -4
      vertex 6 -16 -2.3
    endloop
  endfacet
  facet normal -1 0 0
    outer loop
      vertex 6 -16 0.299999
      vertex 6 6 4
      vertex 6 6 0.299999
    endloop
  endfacet
  facet normal -1 -0 0
    outer loop
      vertex 6 6 4
      vertex 6 -16 0.299999
      vertex 6 -16 4
    endloop
  endfacet
  facet normal 0 -1 0
    outer loop
      vertex -16 6 -4
      vertex 6 6 -2.3
      vertex -16 6 -2.3
    endloop
  endfacet
  facet normal 0 -1 -0
    outer loop
      vertex 6 6 -2.3
      vertex -16 6 -4
      vertex 6 6 -4
    endloop
  endfacet
  facet normal 0 -1 0
    outer loop
      vertex -16 6 0.299999
      vertex 6 6 4
      vertex -16 6 4
    endloop
  endfacet
  facet normal 0 -1 -0
    outer loop
      vertex 6 6 4
      vertex -16 6 0.299999
      vertex 6 6 0.299999
    endloop
  endfacet
  facet normal -0.987688 -0.156435 0
    outer loop
      vertex 14.7 11.2 1
      vertex 14.5287 12.2816 4
      vertex 14.5287 12.2816 1
    endloop
  endfacet
  facet normal -0.987688 -0.156435 0
    outer loop
      vertex 14.5287 12.2816 4
      vertex 14.7 11.2 1
      vertex 14.7 11.2 4
    endloop
  endfacet
  facet normal 0.987688 -0.156435 0
    outer loop
      vertex 7.7 11.2 4
      vertex 7.8713 12.2816 1
      vertex 7.8713 12.2816 4
    endloop
  endfacet
  facet normal 0.987688 -0.156435 0
    outer loop
      vertex 7.8713 12.2816 1
      vertex 7.7 11.2 4
      vertex 7.7 11.2 1
    endloop
  endfacet
  facet normal -0.156435 -0.987688 0
    outer loop
      vertex 11.2 14.7 1
      vertex 12.2816 14.5287 4
      vertex 11.2 14.7 4
    endloop
  endfacet
  facet normal -0.156435 -0.987688 -0
    outer loop
      vertex 12.2816 14.5287 4
      vertex 11.2 14.7 1
      vertex 12.2816 14.5287 1
    endloop
  endfacet
  facet normal 0.156435 0.987688 -0
    outer loop
      vertex 11.2 7.7 1
      vertex 10.1184 7.8713 4
      vertex 11.2 7.7 4
    endloop
  endfacet
  facet normal 0.156435 0.987688 0
    outer loop
      vertex 10.1184 7.8713 4
      vertex 11.2 7.7 1
      vertex 10.1184 7.8713 1
    endloop
  endfacet
  facet normal 0 0 1
    outer loop
      vertex 12.7 11.2 1
      vertex 14.7 11.2 1
      vertex 14.5287 12.2816 1
    endloop
  endfacet
  facet normal 0 0 1
    outer loop
      vertex 12.6266 11.6635 1
      vertex 14.5287 12.2816 1
      vertex 14.0316 13.2572 1
    endloop
  endfacet
  facet normal 0 0 1
    outer loop
      vertex 14.7 11.2 1
      vertex 12.7 11.2 1
      vertex 14.5287 10.1184 1
    endloop
  endfacet
  facet normal 0 0 1
    outer loop
      vertex 12.4135 12.0817 1
      vertex 14.0316 13.2572 1
      vertex 13.2572 14.0316 1
    endloop
  endfacet
  facet normal -0 0 1
    outer loop
      vertex 12.6266 10.7365 1
      vertex 14.5287 10.1184 1
      vertex 12.7 11.2 1
    endloop
  endfacet
  facet normal 0 0 1
    outer loop
      vertex 14.5287 10.1184 1
      vertex 12.6266 10.7365 1
      vertex 14.0316 9.14275 1
    endloop
  endfacet
  facet normal 0 0 1
    outer loop
      vertex 14.5287 12.2816 1
      vertex 12.6266 11.6635 1
      vertex 12.7 11.2 1
    endloop
  endfacet
  facet normal 0 0 1
    outer loop
      vertex 14.0316 13.2572 1
      vertex 12.4135 12.0817 1
      vertex 12.6266 11.6635 1
    endloop
  endfacet
  facet normal 0 0 1
    outer loop
      vertex 12.0817 12.4135 1
      vertex 13.2572 14.0316 1
      vertex 12.2816 14.5287 1
    endloop
  endfacet
  facet normal 0 0 1
    outer loop
      vertex 13.2572 14.0316 1
      vertex 12.0817 12.4135 1
      vertex 12.4135 12.0817 1
    endloop
  endfacet
  facet normal 0 0 1
    outer loop
      vertex 12.2816 14.5287 1
      vertex 11.6635 12.6266 1
      vertex 12.0817 12.4135 1
    endloop
  endfacet
  facet normal 0 0 1
    outer loop
      vertex 11.2 14.7 1
      vertex 11.6635 12.6266 1
      vertex 12.2816 14.5287 1
    endloop
  endfacet
  facet normal 0 0 1
    outer loop
      vertex 11.2 14.7 1
      vertex 11.2 12.7 1
      vertex 11.6635 12.6266 1
    endloop
  endfacet
  facet normal 0 0 1
    outer loop
      vertex 11.2 14.7 1
      vertex 10.7365 12.6266 1
      vertex 11.2 12.7 1
    endloop
  endfacet
  facet normal -0 0 1
    outer loop
      vertex 10.1184 14.5287 1
      vertex 10.7365 12.6266 1
      vertex 11.2 14.7 1
    endloop
  endfacet
  facet normal 0 0 1
    outer loop
      vertex 10.7365 12.6266 1
      vertex 10.1184 14.5287 1
      vertex 10.3183 12.4135 1
    endloop
  endfacet
  facet normal -0 0 1
    outer loop
      vertex 9.14275 14.0316 1
      vertex 10.3183 12.4135 1
      vertex 10.1184 14.5287 1
    endloop
  endfacet
  facet normal 0 0 1
    outer loop
      vertex 10.3183 12.4135 1
      vertex 9.14275 14.0316 1
      vertex 9.98647 12.0817 1
    endloop
  endfacet
  facet normal -0 0 1
    outer loop
      vertex 8.36844 13.2572 1
      vertex 9.98647 12.0817 1
      vertex 9.14275 14.0316 1
    endloop
  endfacet
  facet normal 0 0 1
    outer loop
      vertex 9.98647 12.0817 1
      vertex 8.36844 13.2572 1
      vertex 9.77342 11.6635 1
    endloop
  endfacet
  facet normal -0 0 1
    outer loop
      vertex 12.4135 10.3183 1
      vertex 14.0316 9.14275 1
      vertex 12.6266 10.7365 1
    endloop
  endfacet
  facet normal 0 0 1
    outer loop
      vertex 14.0316 9.14275 1
      vertex 12.4135 10.3183 1
      vertex 13.2572 8.36844 1
    endloop
  endfacet
  facet normal -0 0 1
    outer loop
      vertex 12.0817 9.98647 1
      vertex 13.2572 8.36844 1
      vertex 12.4135 10.3183 1
    endloop
  endfacet
  facet normal 0 0 1
    outer loop
      vertex 13.2572 8.36844 1
      vertex 12.0817 9.98647 1
      vertex 12.2816 7.8713 1
    endloop
  endfacet
  facet normal -0 0 1
    outer loop
      vertex 11.6635 9.77342 1
      vertex 12.2816 7.8713 1
      vertex 12.0817 9.98647 1
    endloop
  endfacet
  facet normal -0 0 1
    outer loop
      vertex 11.2 9.7 1
      vertex 12.2816 7.8713 1
      vertex 11.6635 9.77342 1
    endloop
  endfacet
  facet normal 0 0 1
    outer loop
      vertex 11.2 9.7 1
      vertex 11.2 7.7 1
      vertex 12.2816 7.8713 1
    endloop
  endfacet
  facet normal 0 0 1
    outer loop
      vertex 10.7365 9.77342 1
      vertex 11.2 7.7 1
      vertex 11.2 9.7 1
    endloop
  endfacet
  facet normal 0 0 1
    outer loop
      vertex 10.1184 7.8713 1
      vertex 10.7365 9.77342 1
      vertex 10.3183 9.98647 1
    endloop
  endfacet
  facet normal 0 0 1
    outer loop
      vertex 10.7365 9.77342 1
      vertex 10.1184 7.8713 1
      vertex 11.2 7.7 1
    endloop
  endfacet
  facet normal 0 0 1
    outer loop
      vertex 9.14275 8.36844 1
      vertex 10.3183 9.98647 1
      vertex 9.98647 10.3183 1
    endloop
  endfacet
  facet normal 0 0 1
    outer loop
      vertex 8.36844 9.14275 1
      vertex 9.98647 10.3183 1
      vertex 9.77342 10.7365 1
    endloop
  endfacet
  facet normal 0 0 1
    outer loop
      vertex 7.8713 10.1184 1
      vertex 9.77342 10.7365 1
      vertex 9.7 11.2 1
    endloop
  endfacet
  facet normal -0 0 1
    outer loop
      vertex 7.8713 12.2816 1
      vertex 9.77342 11.6635 1
      vertex 8.36844 13.2572 1
    endloop
  endfacet
  facet normal 0 0 1
    outer loop
      vertex 10.3183 9.98647 1
      vertex 9.14275 8.36844 1
      vertex 10.1184 7.8713 1
    endloop
  endfacet
  facet normal 0 0 1
    outer loop
      vertex 9.77342 11.6635 1
      vertex 7.8713 12.2816 1
      vertex 9.7 11.2 1
    endloop
  endfacet
  facet normal 0 0 1
    outer loop
      vertex 9.98647 10.3183 1
      vertex 8.36844 9.14275 1
      vertex 9.14275 8.36844 1
    endloop
  endfacet
  facet normal 0 0 1
    outer loop
      vertex 7.7 11.2 1
      vertex 9.7 11.2 1
      vertex 7.8713 12.2816 1
    endloop
  endfacet
  facet normal 0 0 1
    outer loop
      vertex 9.77342 10.7365 1
      vertex 7.8713 10.1184 1
      vertex 8.36844 9.14275 1
    endloop
  endfacet
  facet normal 0 0 1
    outer loop
      vertex 9.7 11.2 1
      vertex 7.7 11.2 1
      vertex 7.8713 10.1184 1
    endloop
  endfacet
  facet normal -0.707107 -0.707107 0
    outer loop
      vertex 14.0316 13.2572 1
      vertex 13.2572 14.0316 4
      vertex 13.2572 14.0316 1
    endloop
  endfacet
  facet normal -0.707107 -0.707107 0
    outer loop
      vertex 13.2572 14.0316 4
      vertex 14.0316 13.2572 1
      vertex 14.0316 13.2572 4
    endloop
  endfacet
  facet normal -0.891007 -0.45399 0
    outer loop
      vertex 14.5287 12.2816 1
      vertex 14.0316 13.2572 4
      vertex 14.0316 13.2572 1
    endloop
  endfacet
  facet normal -0.891007 -0.45399 0
    outer loop
      vertex 14.0316 13.2572 4
      vertex 14.5287 12.2816 1
      vertex 14.5287 12.2816 4
    endloop
  endfacet
  facet normal -0.45399 -0.891007 0
    outer loop
      vertex 12.2816 14.5287 1
      vertex 13.2572 14.0316 4
      vertex 12.2816 14.5287 4
    endloop
  endfacet
  facet normal -0.45399 -0.891007 -0
    outer loop
      vertex 13.2572 14.0316 4
      vertex 12.2816 14.5287 1
      vertex 13.2572 14.0316 1
    endloop
  endfacet
  facet normal 0.45399 -0.891007 0
    outer loop
      vertex 9.14275 14.0316 1
      vertex 10.1184 14.5287 4
      vertex 9.14275 14.0316 4
    endloop
  endfacet
  facet normal 0.45399 -0.891007 0
    outer loop
      vertex 10.1184 14.5287 4
      vertex 9.14275 14.0316 1
      vertex 10.1184 14.5287 1
    endloop
  endfacet
  facet normal 0.707107 -0.707107 0
    outer loop
      vertex 8.36844 13.2572 4
      vertex 9.14275 14.0316 1
      vertex 9.14275 14.0316 4
    endloop
  endfacet
  facet normal 0.707107 -0.707107 0
    outer loop
      vertex 9.14275 14.0316 1
      vertex 8.36844 13.2572 4
      vertex 8.36844 13.2572 1
    endloop
  endfacet
  facet normal 0.156435 -0.987688 0
    outer loop
      vertex 10.1184 14.5287 1
      vertex 11.2 14.7 4
      vertex 10.1184 14.5287 4
    endloop
  endfacet
  facet normal 0.156435 -0.987688 0
    outer loop
      vertex 11.2 14.7 4
      vertex 10.1184 14.5287 1
      vertex 11.2 14.7 1
    endloop
  endfacet
  facet normal -0.891007 0.45399 0
    outer loop
      vertex 14.0316 9.14275 1
      vertex 14.5287 10.1184 4
      vertex 14.5287 10.1184 1
    endloop
  endfacet
  facet normal -0.891007 0.45399 0
    outer loop
      vertex 14.5287 10.1184 4
      vertex 14.0316 9.14275 1
      vertex 14.0316 9.14275 4
    endloop
  endfacet
  facet normal 0.707107 0.707107 0
    outer loop
      vertex 9.14275 8.36844 4
      vertex 8.36844 9.14275 1
      vertex 8.36844 9.14275 4
    endloop
  endfacet
  facet normal 0.707107 0.707107 0
    outer loop
      vertex 8.36844 9.14275 1
      vertex 9.14275 8.36844 4
      vertex 9.14275 8.36844 1
    endloop
  endfacet
  facet normal 0.987688 0.156435 0
    outer loop
      vertex 7.8713 10.1184 4
      vertex 7.7 11.2 1
      vertex 7.7 11.2 4
    endloop
  endfacet
  facet normal 0.987688 0.156435 0
    outer loop
      vertex 7.7 11.2 1
      vertex 7.8713 10.1184 4
      vertex 7.8713 10.1184 1
    endloop
  endfacet
  facet normal 0.891007 -0.45399 0
    outer loop
      vertex 7.8713 12.2816 4
      vertex 8.36844 13.2572 1
      vertex 8.36844 13.2572 4
    endloop
  endfacet
  facet normal 0.891007 -0.45399 0
    outer loop
      vertex 8.36844 13.2572 1
      vertex 7.8713 12.2816 4
      vertex 7.8713 12.2816 1
    endloop
  endfacet
  facet normal -0.156435 0.987688 0
    outer loop
      vertex 12.2816 7.8713 1
      vertex 11.2 7.7 4
      vertex 12.2816 7.8713 4
    endloop
  endfacet
  facet normal -0.156435 0.987688 0
    outer loop
      vertex 11.2 7.7 4
      vertex 12.2816 7.8713 1
      vertex 11.2 7.7 1
    endloop
  endfacet
  facet normal -0.707107 0.707107 0
    outer loop
      vertex 13.2572 8.36844 1
      vertex 14.0316 9.14275 4
      vertex 14.0316 9.14275 1
    endloop
  endfacet
  facet normal -0.707107 0.707107 0
    outer loop
      vertex 14.0316 9.14275 4
      vertex 13.2572 8.36844 1
      vertex 13.2572 8.36844 4
    endloop
  endfacet
  facet normal 0.45399 0.891007 -0
    outer loop
      vertex 10.1184 7.8713 1
      vertex 9.14275 8.36844 4
      vertex 10.1184 7.8713 4
    endloop
  endfacet
  facet normal 0.45399 0.891007 0
    outer loop
      vertex 9.14275 8.36844 4
      vertex 10.1184 7.8713 1
      vertex 9.14275 8.36844 1
    endloop
  endfacet
  facet normal 0.891007 0.45399 0
    outer loop
      vertex 8.36844 9.14275 4
      vertex 7.8713 10.1184 1
      vertex 7.8713 10.1184 4
    endloop
  endfacet
  facet normal 0.891007 0.45399 0
    outer loop
      vertex 7.8713 10.1184 1
      vertex 8.36844 9.14275 4
      vertex 8.36844 9.14275 1
    endloop
  endfacet
  facet normal -0.987688 0.156435 0
    outer loop
      vertex 14.5287 10.1184 1
      vertex 14.7 11.2 4
      vertex 14.7 11.2 1
    endloop
  endfacet
  facet normal -0.987688 0.156435 0
    outer loop
      vertex 14.7 11.2 4
      vertex 14.5287 10.1184 1
      vertex 14.5287 10.1184 4
    endloop
  endfacet
  facet normal -0.45399 0.891007 0
    outer loop
      vertex 13.2572 8.36844 1
      vertex 12.2816 7.8713 4
      vertex 13.2572 8.36844 4
    endloop
  endfacet
  facet normal -0.45399 0.891007 0
    outer loop
      vertex 12.2816 7.8713 4
      vertex 13.2572 8.36844 1
      vertex 12.2816 7.8713 1
    endloop
  endfacet
  facet normal -0.987688 -0.156436 0
    outer loop
      vertex 12.7 11.2 -4
      vertex 12.6266 11.6635 1
      vertex 12.6266 11.6635 -4
    endloop
  endfacet
  facet normal -0.987688 -0.156436 0
    outer loop
      vertex 12.6266 11.6635 1
      vertex 12.7 11.2 -4
      vertex 12.7 11.2 1
    endloop
  endfacet
  facet normal 0.987688 -0.156436 0
    outer loop
      vertex 9.7 11.2 1
      vertex 9.77342 11.6635 -4
      vertex 9.77342 11.6635 1
    endloop
  endfacet
  facet normal 0.987688 -0.156436 0
    outer loop
      vertex 9.77342 11.6635 -4
      vertex 9.7 11.2 1
      vertex 9.7 11.2 -4
    endloop
  endfacet
  facet normal -0.156436 -0.987688 0
    outer loop
      vertex 11.2 12.7 -4
      vertex 11.6635 12.6266 1
      vertex 11.2 12.7 1
    endloop
  endfacet
  facet normal -0.156436 -0.987688 -0
    outer loop
      vertex 11.6635 12.6266 1
      vertex 11.2 12.7 -4
      vertex 11.6635 12.6266 -4
    endloop
  endfacet
  facet normal 0.156436 0.987688 -0
    outer loop
      vertex 11.2 9.7 -4
      vertex 10.7365 9.77342 1
      vertex 11.2 9.7 1
    endloop
  endfacet
  facet normal 0.156436 0.987688 0
    outer loop
      vertex 10.7365 9.77342 1
      vertex 11.2 9.7 -4
      vertex 10.7365 9.77342 -4
    endloop
  endfacet
  facet normal -0.707107 -0.707107 0
    outer loop
      vertex 12.4135 12.0817 -4
      vertex 12.0817 12.4135 1
      vertex 12.0817 12.4135 -4
    endloop
  endfacet
  facet normal -0.707107 -0.707107 0
    outer loop
      vertex 12.0817 12.4135 1
      vertex 12.4135 12.0817 -4
      vertex 12.4135 12.0817 1
    endloop
  endfacet
  facet normal -0.891007 -0.45399 0
    outer loop
      vertex 12.6266 11.6635 -4
      vertex 12.4135 12.0817 1
      vertex 12.4135 12.0817 -4
    endloop
  endfacet
  facet normal -0.891007 -0.45399 0
    outer loop
      vertex 12.4135 12.0817 1
      vertex 12.6266 11.6635 -4
      vertex 12.6266 11.6635 1
    endloop
  endfacet
  facet normal -0.45399 -0.891007 0
    outer loop
      vertex 11.6635 12.6266 -4
      vertex 12.0817 12.4135 1
      vertex 11.6635 12.6266 1
    endloop
  endfacet
  facet normal -0.45399 -0.891007 -0
    outer loop
      vertex 12.0817 12.4135 1
      vertex 11.6635 12.6266 -4
      vertex 12.0817 12.4135 -4
    endloop
  endfacet
  facet normal 0.45399 -0.891007 0
    outer loop
      vertex 10.3183 12.4135 -4
      vertex 10.7365 12.6266 1
      vertex 10.3183 12.4135 1
    endloop
  endfacet
  facet normal 0.45399 -0.891007 0
    outer loop
      vertex 10.7365 12.6266 1
      vertex 10.3183 12.4135 -4
      vertex 10.7365 12.6266 -4
    endloop
  endfacet
  facet normal 0.707107 -0.707107 0
    outer loop
      vertex 9.98647 12.0817 1
      vertex 10.3183 12.4135 -4
      vertex 10.3183 12.4135 1
    endloop
  endfacet
  facet normal 0.707107 -0.707107 0
    outer loop
      vertex 10.3183 12.4135 -4
      vertex 9.98647 12.0817 1
      vertex 9.98647 12.0817 -4
    endloop
  endfacet
  facet normal 0.156436 -0.987688 0
    outer loop
      vertex 10.7365 12.6266 -4
      vertex 11.2 12.7 1
      vertex 10.7365 12.6266 1
    endloop
  endfacet
  facet normal 0.156436 -0.987688 0
    outer loop
      vertex 11.2 12.7 1
      vertex 10.7365 12.6266 -4
      vertex 11.2 12.7 -4
    endloop
  endfacet
  facet normal -0.891007 0.45399 0
    outer loop
      vertex 12.4135 10.3183 -4
      vertex 12.6266 10.7365 1
      vertex 12.6266 10.7365 -4
    endloop
  endfacet
  facet normal -0.891007 0.45399 0
    outer loop
      vertex 12.6266 10.7365 1
      vertex 12.4135 10.3183 -4
      vertex 12.4135 10.3183 1
    endloop
  endfacet
  facet normal 0.707107 0.707107 0
    outer loop
      vertex 10.3183 9.98647 1
      vertex 9.98647 10.3183 -4
      vertex 9.98647 10.3183 1
    endloop
  endfacet
  facet normal 0.707107 0.707107 0
    outer loop
      vertex 9.98647 10.3183 -4
      vertex 10.3183 9.98647 1
      vertex 10.3183 9.98647 -4
    endloop
  endfacet
  facet normal 0.987688 0.156436 0
    outer loop
      vertex 9.77342 10.7365 1
      vertex 9.7 11.2 -4
      vertex 9.7 11.2 1
    endloop
  endfacet
  facet normal 0.987688 0.156436 0
    outer loop
      vertex 9.7 11.2 -4
      vertex 9.77342 10.7365 1
      vertex 9.77342 10.7365 -4
    endloop
  endfacet
  facet normal 0.891007 -0.45399 0
    outer loop
      vertex 9.77342 11.6635 1
      vertex 9.98647 12.0817 -4
      vertex 9.98647 12.0817 1
    endloop
  endfacet
  facet normal 0.891007 -0.45399 0
    outer loop
      vertex 9.98647 12.0817 -4
      vertex 9.77342 11.6635 1
      vertex 9.77342 11.6635 -4
    endloop
  endfacet
  facet normal -0.987688 0.156436 0
    outer loop
      vertex 12.6266 10.7365 -4
      vertex 12.7 11.2 1
      vertex 12.7 11.2 -4
    endloop
  endfacet
  facet normal -0.987688 0.156436 0
    outer loop
      vertex 12.7 11.2 1
      vertex 12.6266 10.7365 -4
      vertex 12.6266 10.7365 1
    endloop
  endfacet
  facet normal -0.156436 0.987688 0
    outer loop
      vertex 11.6635 9.77342 -4
      vertex 11.2 9.7 1
      vertex 11.6635 9.77342 1
    endloop
  endfacet
  facet normal -0.156436 0.987688 0
    outer loop
      vertex 11.2 9.7 1
      vertex 11.6635 9.77342 -4
      vertex 11.2 9.7 -4
    endloop
  endfacet
  facet normal -0.707107 0.707107 0
    outer loop
      vertex 12.0817 9.98647 -4
      vertex 12.4135 10.3183 1
      vertex 12.4135 10.3183 -4
    endloop
  endfacet
  facet normal -0.707107 0.707107 0
    outer loop
      vertex 12.4135 10.3183 1
      vertex 12.0817 9.98647 -4
      vertex 12.0817 9.98647 1
    endloop
  endfacet
  facet normal 0.45399 0.891007 -0
    outer loop
      vertex 10.7365 9.77342 -4
      vertex 10.3183 9.98647 1
      vertex 10.7365 9.77342 1
    endloop
  endfacet
  facet normal 0.45399 0.891007 0
    outer loop
      vertex 10.3183 9.98647 1
      vertex 10.7365 9.77342 -4
      vertex 10.3183 9.98647 -4
    endloop
  endfacet
  facet normal 0.891007 0.45399 0
    outer loop
      vertex 9.98647 10.3183 1
      vertex 9.77342 10.7365 -4
      vertex 9.77342 10.7365 1
    endloop
  endfacet
  facet normal 0.891007 0.45399 0
    outer loop
      vertex 9.77342 10.7365 -4
      vertex 9.98647 10.3183 1
      vertex 9.98647 10.3183 -4
    endloop
  endfacet
  facet normal -0.45399 0.891007 0
    outer loop
      vertex 12.0817 9.98647 -4
      vertex 11.6635 9.77342 1
      vertex 12.0817 9.98647 1
    endloop
  endfacet
  facet normal -0.45399 0.891007 0
    outer loop
      vertex 11.6635 9.77342 1
      vertex 12.0817 9.98647 -4
      vertex 11.6635 9.77342 -4
    endloop
  endfacet
  facet normal 0 0 -1
    outer loop
      vertex 6 6 0.299999
      vertex 9 -16 0.299999
      vertex 6 -16 0.299999
    endloop
  endfacet
  facet normal 0 0 -1
    outer loop
      vertex 9 -16 0.299999
      vertex 6 6 0.299999
      vertex 9 9 0.299999
    endloop
  endfacet
  facet normal 0 0 -1
    outer loop
      vertex -16 9 0.299999
      vertex 6 6 0.299999
      vertex -16 6 0.299999
    endloop
  endfacet
  facet normal 0 0 -1
    outer loop
      vertex 6 6 0.299999
      vertex -16 9 0.299999
      vertex 9 9 0.299999
    endloop
  endfacet
  facet normal -1 0 0
    outer loop
      vertex 9 -16 -2.3
      vertex 9 9 0.299999
      vertex 9 9 -2.3
    endloop
  endfacet
  facet normal -1 -0 0
    outer loop
      vertex 9 9 0.299999
      vertex 9 -16 -2.3
      vertex 9 -16 0.299999
    endloop
  endfacet
  facet normal 0 0 1
    outer loop
      vertex 9 9 -2.3
      vertex 6 6 -2.3
      vertex 9 -16 -2.3
    endloop
  endfacet
  facet normal -0 0 1
    outer loop
      vertex -16 9 -2.3
      vertex 6 6 -2.3
      vertex 9 9 -2.3
    endloop
  endfacet
  facet normal 0 0 1
    outer loop
      vertex 6 6 -2.3
      vertex -16 9 -2.3
      vertex -16 6 -2.3
    endloop
  endfacet
  facet normal 0 0 1
    outer loop
      vertex 9 -16 -2.3
      vertex 6 6 -2.3
      vertex 6 -16 -2.3
    endloop
  endfacet
  facet normal 0 -1 0
    outer loop
      vertex -16 9 -2.3
      vertex 9 9 0.299999
      vertex -16 9 0.299999
    endloop
  endfacet
  facet normal 0 -1 -0
    outer loop
      vertex 9 9 0.299999
      vertex -16 9 -2.3
      vertex 9 9 -2.3
    endloop
  endfacet
endsolid OpenSCAD_Model
