<?xml version="1.0" standalone="no"?>
 <!DOCTYPE svg PUBLIC "-//W3C//DTD SVG 1.1//EN" 
 "http://www.w3.org/Graphics/SVG/1.1/DTD/svg11.dtd"> 
<svg xmlns="http://www.w3.org/2000/svg" version="1.1" 
    width="29.7002cm" height="21.0007cm" viewBox="0 0 116930 82680 ">
<title>SVG Picture created as plants-F.Fab.svg date 2018/03/08 17:28:19 </title>
  <desc>Picture generated by PCBNEW </desc>
<g style="fill:#000000; fill-opacity:1;stroke:#000000; stroke-opacity:1;
stroke-linecap:round; stroke-linejoin:round; "
 transform="translate(0 0) scale(1 1)">
</g>
<g style="fill:#000000; fill-opacity:0.0; 
stroke:#000000; stroke-width:-0.000393701; stroke-opacity:1; 
stroke-linecap:round; stroke-linejoin:round;">
</g>
<g style="fill:#000000; fill-opacity:0.0; 
stroke:#000000; stroke-width:39.3701; stroke-opacity:1; 
stroke-linecap:round; stroke-linejoin:round;">
</g>
<g style="fill:#000000; fill-opacity:0.0; 
stroke:#000000; stroke-width:59.0551; stroke-opacity:1; 
stroke-linecap:round; stroke-linejoin:round;">
<rect x="69685.9" y="65357.2" width="42519.7" height="12598.4" rx="0" />
</g>
<g style="fill:#000000; fill-opacity:0.0; 
stroke:#000000; stroke-width:39.3701; stroke-opacity:1; 
stroke-linecap:round; stroke-linejoin:round;">
</g>
<g style="fill:#000000; fill-opacity:0.0; 
stroke:#000000; stroke-width:59.0551; stroke-opacity:1; 
stroke-linecap:round; stroke-linejoin:round;">
<rect x="3937.01" y="3937.01" width="109056" height="74806" rx="0" />
</g>
<g style="fill:#000000; fill-opacity:0.0; 
stroke:#000000; stroke-width:39.3701; stroke-opacity:1; 
stroke-linecap:round; stroke-linejoin:round;">
</g>
<g style="fill:#000000; fill-opacity:0.0; 
stroke:#000000; stroke-width:59.0551; stroke-opacity:1; 
stroke-linecap:round; stroke-linejoin:round;">
<rect x="4724.41" y="4724.41" width="107481" height="73231.2" rx="0" />
</g>
<g style="fill:#000000; fill-opacity:0.0; 
stroke:#000000; stroke-width:39.3701; stroke-opacity:1; 
stroke-linecap:round; stroke-linejoin:round;">
</g>
<g style="fill:#000000; fill-opacity:0.0; 
stroke:#000000; stroke-width:59.0551; stroke-opacity:1; 
stroke-linecap:round; stroke-linejoin:round;">
<path d="M23622 4724
L23622 3937
" />
</g>
<g style="fill:#000000; fill-opacity:0.0; 
stroke:#000000; stroke-width:39.3701; stroke-opacity:1; 
stroke-linecap:round; stroke-linejoin:round;">
</g>
<g style="fill:#000000; fill-opacity:0.0; 
stroke:#000000; stroke-width:59.0551; stroke-opacity:1; 
stroke-linecap:round; stroke-linejoin:round;">
<path d="M43307 4724
L43307 3937
" />
</g>
<g style="fill:#000000; fill-opacity:0.0; 
stroke:#000000; stroke-width:39.3701; stroke-opacity:1; 
stroke-linecap:round; stroke-linejoin:round;">
</g>
<g style="fill:#000000; fill-opacity:0.0; 
stroke:#000000; stroke-width:59.0551; stroke-opacity:1; 
stroke-linecap:round; stroke-linejoin:round;">
<path d="M62992 4724
L62992 3937
" />
</g>
<g style="fill:#000000; fill-opacity:0.0; 
stroke:#000000; stroke-width:39.3701; stroke-opacity:1; 
stroke-linecap:round; stroke-linejoin:round;">
</g>
<g style="fill:#000000; fill-opacity:0.0; 
stroke:#000000; stroke-width:59.0551; stroke-opacity:1; 
stroke-linecap:round; stroke-linejoin:round;">
<path d="M82677 4724
L82677 3937
" />
</g>
<g style="fill:#000000; fill-opacity:0.0; 
stroke:#000000; stroke-width:39.3701; stroke-opacity:1; 
stroke-linecap:round; stroke-linejoin:round;">
</g>
<g style="fill:#000000; fill-opacity:0.0; 
stroke:#000000; stroke-width:59.0551; stroke-opacity:1; 
stroke-linecap:round; stroke-linejoin:round;">
<path d="M102362 4724
L102362 3937
" />
</g>
<g style="fill:#000000; fill-opacity:0.0; 
stroke:#000000; stroke-width:39.3701; stroke-opacity:1; 
stroke-linecap:round; stroke-linejoin:round;">
</g>
<g style="fill:#000000; fill-opacity:0.0; 
stroke:#000000; stroke-width:59.0551; stroke-opacity:1; 
stroke-linecap:round; stroke-linejoin:round;">
<path d="M14169 4562
L13877 4562
" />
<path d="M14023 4562
L14023 4050
L13974 4123
L13925 4172
L13877 4196
" />
</g>
<g style="fill:#000000; fill-opacity:0.0; 
stroke:#000000; stroke-width:39.3701; stroke-opacity:1; 
stroke-linecap:round; stroke-linejoin:round;">
</g>
<g style="fill:#000000; fill-opacity:0.0; 
stroke:#000000; stroke-width:59.0551; stroke-opacity:1; 
stroke-linecap:round; stroke-linejoin:round;">
<path d="M33562 4099
L33586 4074
L33635 4050
L33757 4050
L33805 4074
L33830 4099
L33854 4147
L33854 4196
L33830 4269
L33537 4562
L33854 4562
" />
</g>
<g style="fill:#000000; fill-opacity:0.0; 
stroke:#000000; stroke-width:39.3701; stroke-opacity:1; 
stroke-linecap:round; stroke-linejoin:round;">
</g>
<g style="fill:#000000; fill-opacity:0.0; 
stroke:#000000; stroke-width:59.0551; stroke-opacity:1; 
stroke-linecap:round; stroke-linejoin:round;">
<path d="M53222 4050
L53539 4050
L53368 4245
L53442 4245
L53490 4269
L53515 4294
L53539 4342
L53539 4464
L53515 4513
L53490 4537
L53442 4562
L53295 4562
L53247 4537
L53222 4513
" />
</g>
<g style="fill:#000000; fill-opacity:0.0; 
stroke:#000000; stroke-width:39.3701; stroke-opacity:1; 
stroke-linecap:round; stroke-linejoin:round;">
</g>
<g style="fill:#000000; fill-opacity:0.0; 
stroke:#000000; stroke-width:59.0551; stroke-opacity:1; 
stroke-linecap:round; stroke-linejoin:round;">
<path d="M73175 4221
L73175 4562
" />
<path d="M73053 4026
L72932 4391
L73248 4391
" />
</g>
<g style="fill:#000000; fill-opacity:0.0; 
stroke:#000000; stroke-width:39.3701; stroke-opacity:1; 
stroke-linecap:round; stroke-linejoin:round;">
</g>
<g style="fill:#000000; fill-opacity:0.0; 
stroke:#000000; stroke-width:59.0551; stroke-opacity:1; 
stroke-linecap:round; stroke-linejoin:round;">
<path d="M92885 4050
L92641 4050
L92617 4294
L92641 4269
L92690 4245
L92812 4245
L92860 4269
L92885 4294
L92909 4342
L92909 4464
L92885 4513
L92860 4537
L92812 4562
L92690 4562
L92641 4537
L92617 4513
" />
</g>
<g style="fill:#000000; fill-opacity:0.0; 
stroke:#000000; stroke-width:39.3701; stroke-opacity:1; 
stroke-linecap:round; stroke-linejoin:round;">
</g>
<g style="fill:#000000; fill-opacity:0.0; 
stroke:#000000; stroke-width:59.0551; stroke-opacity:1; 
stroke-linecap:round; stroke-linejoin:round;">
<path d="M112545 4050
L112448 4050
L112399 4074
L112375 4099
L112326 4172
L112302 4269
L112302 4464
L112326 4513
L112350 4537
L112399 4562
L112497 4562
L112545 4537
L112570 4513
L112594 4464
L112594 4342
L112570 4294
L112545 4269
L112497 4245
L112399 4245
L112350 4269
L112326 4294
L112302 4342
" />
</g>
<g style="fill:#000000; fill-opacity:0.0; 
stroke:#000000; stroke-width:39.3701; stroke-opacity:1; 
stroke-linecap:round; stroke-linejoin:round;">
</g>
<g style="fill:#000000; fill-opacity:0.0; 
stroke:#000000; stroke-width:59.0551; stroke-opacity:1; 
stroke-linecap:round; stroke-linejoin:round;">
<path d="M23622 77955
L23622 78742
" />
</g>
<g style="fill:#000000; fill-opacity:0.0; 
stroke:#000000; stroke-width:39.3701; stroke-opacity:1; 
stroke-linecap:round; stroke-linejoin:round;">
</g>
<g style="fill:#000000; fill-opacity:0.0; 
stroke:#000000; stroke-width:59.0551; stroke-opacity:1; 
stroke-linecap:round; stroke-linejoin:round;">
<path d="M43307 77955
L43307 78742
" />
</g>
<g style="fill:#000000; fill-opacity:0.0; 
stroke:#000000; stroke-width:39.3701; stroke-opacity:1; 
stroke-linecap:round; stroke-linejoin:round;">
</g>
<g style="fill:#000000; fill-opacity:0.0; 
stroke:#000000; stroke-width:59.0551; stroke-opacity:1; 
stroke-linecap:round; stroke-linejoin:round;">
<path d="M62992 77955
L62992 78742
" />
</g>
<g style="fill:#000000; fill-opacity:0.0; 
stroke:#000000; stroke-width:39.3701; stroke-opacity:1; 
stroke-linecap:round; stroke-linejoin:round;">
</g>
<g style="fill:#000000; fill-opacity:0.0; 
stroke:#000000; stroke-width:59.0551; stroke-opacity:1; 
stroke-linecap:round; stroke-linejoin:round;">
<path d="M82677 77955
L82677 78742
" />
</g>
<g style="fill:#000000; fill-opacity:0.0; 
stroke:#000000; stroke-width:39.3701; stroke-opacity:1; 
stroke-linecap:round; stroke-linejoin:round;">
</g>
<g style="fill:#000000; fill-opacity:0.0; 
stroke:#000000; stroke-width:59.0551; stroke-opacity:1; 
stroke-linecap:round; stroke-linejoin:round;">
<path d="M102362 77955
L102362 78742
" />
</g>
<g style="fill:#000000; fill-opacity:0.0; 
stroke:#000000; stroke-width:39.3701; stroke-opacity:1; 
stroke-linecap:round; stroke-linejoin:round;">
</g>
<g style="fill:#000000; fill-opacity:0.0; 
stroke:#000000; stroke-width:59.0551; stroke-opacity:1; 
stroke-linecap:round; stroke-linejoin:round;">
<path d="M14169 78580
L13877 78580
" />
<path d="M14023 78580
L14023 78069
L13974 78142
L13925 78190
L13877 78215
" />
</g>
<g style="fill:#000000; fill-opacity:0.0; 
stroke:#000000; stroke-width:39.3701; stroke-opacity:1; 
stroke-linecap:round; stroke-linejoin:round;">
</g>
<g style="fill:#000000; fill-opacity:0.0; 
stroke:#000000; stroke-width:59.0551; stroke-opacity:1; 
stroke-linecap:round; stroke-linejoin:round;">
<path d="M33562 78117
L33586 78093
L33635 78069
L33757 78069
L33805 78093
L33830 78117
L33854 78166
L33854 78215
L33830 78288
L33537 78580
L33854 78580
" />
</g>
<g style="fill:#000000; fill-opacity:0.0; 
stroke:#000000; stroke-width:39.3701; stroke-opacity:1; 
stroke-linecap:round; stroke-linejoin:round;">
</g>
<g style="fill:#000000; fill-opacity:0.0; 
stroke:#000000; stroke-width:59.0551; stroke-opacity:1; 
stroke-linecap:round; stroke-linejoin:round;">
<path d="M53222 78069
L53539 78069
L53368 78263
L53442 78263
L53490 78288
L53515 78312
L53539 78361
L53539 78483
L53515 78532
L53490 78556
L53442 78580
L53295 78580
L53247 78556
L53222 78532
" />
</g>
<g style="fill:#000000; fill-opacity:0.0; 
stroke:#000000; stroke-width:39.3701; stroke-opacity:1; 
stroke-linecap:round; stroke-linejoin:round;">
</g>
<g style="fill:#000000; fill-opacity:0.0; 
stroke:#000000; stroke-width:59.0551; stroke-opacity:1; 
stroke-linecap:round; stroke-linejoin:round;">
<path d="M73175 78239
L73175 78580
" />
<path d="M73053 78044
L72932 78410
L73248 78410
" />
</g>
<g style="fill:#000000; fill-opacity:0.0; 
stroke:#000000; stroke-width:39.3701; stroke-opacity:1; 
stroke-linecap:round; stroke-linejoin:round;">
</g>
<g style="fill:#000000; fill-opacity:0.0; 
stroke:#000000; stroke-width:59.0551; stroke-opacity:1; 
stroke-linecap:round; stroke-linejoin:round;">
<path d="M92885 78069
L92641 78069
L92617 78312
L92641 78288
L92690 78263
L92812 78263
L92860 78288
L92885 78312
L92909 78361
L92909 78483
L92885 78532
L92860 78556
L92812 78580
L92690 78580
L92641 78556
L92617 78532
" />
</g>
<g style="fill:#000000; fill-opacity:0.0; 
stroke:#000000; stroke-width:39.3701; stroke-opacity:1; 
stroke-linecap:round; stroke-linejoin:round;">
</g>
<g style="fill:#000000; fill-opacity:0.0; 
stroke:#000000; stroke-width:59.0551; stroke-opacity:1; 
stroke-linecap:round; stroke-linejoin:round;">
<path d="M112545 78069
L112448 78069
L112399 78093
L112375 78117
L112326 78190
L112302 78288
L112302 78483
L112326 78532
L112350 78556
L112399 78580
L112497 78580
L112545 78556
L112570 78532
L112594 78483
L112594 78361
L112570 78312
L112545 78288
L112497 78263
L112399 78263
L112350 78288
L112326 78312
L112302 78361
" />
</g>
<g style="fill:#000000; fill-opacity:0.0; 
stroke:#000000; stroke-width:39.3701; stroke-opacity:1; 
stroke-linecap:round; stroke-linejoin:round;">
</g>
<g style="fill:#000000; fill-opacity:0.0; 
stroke:#000000; stroke-width:59.0551; stroke-opacity:1; 
stroke-linecap:round; stroke-linejoin:round;">
<path d="M3937 23622
L4724 23622
" />
</g>
<g style="fill:#000000; fill-opacity:0.0; 
stroke:#000000; stroke-width:39.3701; stroke-opacity:1; 
stroke-linecap:round; stroke-linejoin:round;">
</g>
<g style="fill:#000000; fill-opacity:0.0; 
stroke:#000000; stroke-width:59.0551; stroke-opacity:1; 
stroke-linecap:round; stroke-linejoin:round;">
<path d="M3937 43307
L4724 43307
" />
</g>
<g style="fill:#000000; fill-opacity:0.0; 
stroke:#000000; stroke-width:39.3701; stroke-opacity:1; 
stroke-linecap:round; stroke-linejoin:round;">
</g>
<g style="fill:#000000; fill-opacity:0.0; 
stroke:#000000; stroke-width:59.0551; stroke-opacity:1; 
stroke-linecap:round; stroke-linejoin:round;">
<path d="M3937 62992
L4724 62992
" />
</g>
<g style="fill:#000000; fill-opacity:0.0; 
stroke:#000000; stroke-width:39.3701; stroke-opacity:1; 
stroke-linecap:round; stroke-linejoin:round;">
</g>
<g style="fill:#000000; fill-opacity:0.0; 
stroke:#000000; stroke-width:59.0551; stroke-opacity:1; 
stroke-linecap:round; stroke-linejoin:round;">
<path d="M4208 13864
L4452 13864
" />
<path d="M4160 14011
L4330 13499
L4501 14011
" />
</g>
<g style="fill:#000000; fill-opacity:0.0; 
stroke:#000000; stroke-width:39.3701; stroke-opacity:1; 
stroke-linecap:round; stroke-linejoin:round;">
</g>
<g style="fill:#000000; fill-opacity:0.0; 
stroke:#000000; stroke-width:59.0551; stroke-opacity:1; 
stroke-linecap:round; stroke-linejoin:round;">
<path d="M4367 33428
L4440 33452
L4464 33476
L4489 33525
L4489 33598
L4464 33647
L4440 33671
L4391 33696
L4196 33696
L4196 33184
L4367 33184
L4416 33208
L4440 33233
L4464 33281
L4464 33330
L4440 33379
L4416 33403
L4367 33428
L4196 33428
" />
</g>
<g style="fill:#000000; fill-opacity:0.0; 
stroke:#000000; stroke-width:39.3701; stroke-opacity:1; 
stroke-linecap:round; stroke-linejoin:round;">
</g>
<g style="fill:#000000; fill-opacity:0.0; 
stroke:#000000; stroke-width:59.0551; stroke-opacity:1; 
stroke-linecap:round; stroke-linejoin:round;">
<path d="M4489 53332
L4464 53356
L4391 53381
L4342 53381
L4269 53356
L4221 53308
L4196 53259
L4172 53161
L4172 53088
L4196 52991
L4221 52942
L4269 52893
L4342 52869
L4391 52869
L4464 52893
L4489 52918
" />
</g>
<g style="fill:#000000; fill-opacity:0.0; 
stroke:#000000; stroke-width:39.3701; stroke-opacity:1; 
stroke-linecap:round; stroke-linejoin:round;">
</g>
<g style="fill:#000000; fill-opacity:0.0; 
stroke:#000000; stroke-width:59.0551; stroke-opacity:1; 
stroke-linecap:round; stroke-linejoin:round;">
<path d="M4196 73066
L4196 72554
L4318 72554
L4391 72578
L4440 72627
L4464 72676
L4489 72773
L4489 72846
L4464 72944
L4440 72993
L4391 73041
L4318 73066
L4196 73066
" />
</g>
<g style="fill:#000000; fill-opacity:0.0; 
stroke:#000000; stroke-width:39.3701; stroke-opacity:1; 
stroke-linecap:round; stroke-linejoin:round;">
</g>
<g style="fill:#000000; fill-opacity:0.0; 
stroke:#000000; stroke-width:59.0551; stroke-opacity:1; 
stroke-linecap:round; stroke-linejoin:round;">
<path d="M112992 23622
L112205 23622
" />
</g>
<g style="fill:#000000; fill-opacity:0.0; 
stroke:#000000; stroke-width:39.3701; stroke-opacity:1; 
stroke-linecap:round; stroke-linejoin:round;">
</g>
<g style="fill:#000000; fill-opacity:0.0; 
stroke:#000000; stroke-width:59.0551; stroke-opacity:1; 
stroke-linecap:round; stroke-linejoin:round;">
<path d="M112992 43307
L112205 43307
" />
</g>
<g style="fill:#000000; fill-opacity:0.0; 
stroke:#000000; stroke-width:39.3701; stroke-opacity:1; 
stroke-linecap:round; stroke-linejoin:round;">
</g>
<g style="fill:#000000; fill-opacity:0.0; 
stroke:#000000; stroke-width:59.0551; stroke-opacity:1; 
stroke-linecap:round; stroke-linejoin:round;">
<path d="M112992 62992
L112205 62992
" />
</g>
<g style="fill:#000000; fill-opacity:0.0; 
stroke:#000000; stroke-width:39.3701; stroke-opacity:1; 
stroke-linecap:round; stroke-linejoin:round;">
</g>
<g style="fill:#000000; fill-opacity:0.0; 
stroke:#000000; stroke-width:59.0551; stroke-opacity:1; 
stroke-linecap:round; stroke-linejoin:round;">
<path d="M112477 13864
L112721 13864
" />
<path d="M112428 14011
L112599 13499
L112769 14011
" />
</g>
<g style="fill:#000000; fill-opacity:0.0; 
stroke:#000000; stroke-width:39.3701; stroke-opacity:1; 
stroke-linecap:round; stroke-linejoin:round;">
</g>
<g style="fill:#000000; fill-opacity:0.0; 
stroke:#000000; stroke-width:59.0551; stroke-opacity:1; 
stroke-linecap:round; stroke-linejoin:round;">
<path d="M112635 33428
L112708 33452
L112733 33476
L112757 33525
L112757 33598
L112733 33647
L112708 33671
L112660 33696
L112465 33696
L112465 33184
L112635 33184
L112684 33208
L112708 33233
L112733 33281
L112733 33330
L112708 33379
L112684 33403
L112635 33428
L112465 33428
" />
</g>
<g style="fill:#000000; fill-opacity:0.0; 
stroke:#000000; stroke-width:39.3701; stroke-opacity:1; 
stroke-linecap:round; stroke-linejoin:round;">
</g>
<g style="fill:#000000; fill-opacity:0.0; 
stroke:#000000; stroke-width:59.0551; stroke-opacity:1; 
stroke-linecap:round; stroke-linejoin:round;">
<path d="M112757 53332
L112733 53356
L112660 53381
L112611 53381
L112538 53356
L112489 53308
L112465 53259
L112440 53161
L112440 53088
L112465 52991
L112489 52942
L112538 52893
L112611 52869
L112660 52869
L112733 52893
L112757 52918
" />
</g>
<g style="fill:#000000; fill-opacity:0.0; 
stroke:#000000; stroke-width:39.3701; stroke-opacity:1; 
stroke-linecap:round; stroke-linejoin:round;">
</g>
<g style="fill:#000000; fill-opacity:0.0; 
stroke:#000000; stroke-width:59.0551; stroke-opacity:1; 
stroke-linecap:round; stroke-linejoin:round;">
<path d="M112465 73066
L112465 72554
L112587 72554
L112660 72578
L112708 72627
L112733 72676
L112757 72773
L112757 72846
L112733 72944
L112708 72993
L112660 73041
L112587 73066
L112465 73066
" />
</g>
<g style="fill:#000000; fill-opacity:0.0; 
stroke:#000000; stroke-width:39.3701; stroke-opacity:1; 
stroke-linecap:round; stroke-linejoin:round;">
</g>
<g style="fill:#000000; fill-opacity:0.0; 
stroke:#000000; stroke-width:59.0551; stroke-opacity:1; 
stroke-linecap:round; stroke-linejoin:round;">
<path d="M78881 76293
L78881 75703
L79022 75703
L79106 75731
L79162 75787
L79190 75843
L79219 75956
L79219 76040
L79190 76153
L79162 76209
L79106 76265
L79022 76293
L78881 76293
" />
<path d="M79725 76293
L79725 75984
L79697 75928
L79640 75899
L79528 75899
L79472 75928
" />
<path d="M79725 76265
L79669 76293
L79528 76293
L79472 76265
L79444 76209
L79444 76153
L79472 76096
L79528 76068
L79669 76068
L79725 76040
" />
<path d="M79922 75899
L80147 75899
" />
<path d="M80006 75703
L80006 76209
L80034 76265
L80090 76293
L80147 76293
" />
<path d="M80568 76265
L80512 76293
L80400 76293
L80343 76265
L80315 76209
L80315 75984
L80343 75928
L80400 75899
L80512 75899
L80568 75928
L80597 75984
L80597 76040
L80315 76096
" />
<path d="M80850 76237
L80878 76265
L80850 76293
L80822 76265
L80850 76237
L80850 76293
" />
<path d="M80850 75928
L80878 75956
L80850 75984
L80822 75956
L80850 75928
L80850 75984
" />
</g>
<g style="fill:#000000; fill-opacity:0.0; 
stroke:#000000; stroke-width:39.3701; stroke-opacity:1; 
stroke-linecap:round; stroke-linejoin:round;">
</g>
<g style="fill:#000000; fill-opacity:0.0; 
stroke:#000000; stroke-width:59.0551; stroke-opacity:1; 
stroke-linecap:round; stroke-linejoin:round;">
<path d="M69685 76577
L112205 76577
" />
</g>
<g style="fill:#000000; fill-opacity:0.0; 
stroke:#000000; stroke-width:39.3701; stroke-opacity:1; 
stroke-linecap:round; stroke-linejoin:round;">
</g>
<g style="fill:#000000; fill-opacity:0.0; 
stroke:#000000; stroke-width:59.0551; stroke-opacity:1; 
stroke-linecap:round; stroke-linejoin:round;">
<path d="M70220 77395
L70220 76805
" />
<path d="M70557 77395
L70304 77058
" />
<path d="M70557 76805
L70220 77142
" />
<path d="M70810 77395
L70810 77002
" />
<path d="M70810 76805
L70782 76833
L70810 76861
L70838 76833
L70810 76805
L70810 76861
" />
<path d="M71429 77339
L71401 77367
L71316 77395
L71260 77395
L71176 77367
L71120 77311
L71091 77255
L71063 77142
L71063 77058
L71091 76946
L71120 76889
L71176 76833
L71260 76805
L71316 76805
L71401 76833
L71429 76861
" />
<path d="M71935 77395
L71935 77086
L71907 77030
L71851 77002
L71738 77002
L71682 77030
" />
<path d="M71935 77367
L71879 77395
L71738 77395
L71682 77367
L71654 77311
L71654 77255
L71682 77199
L71738 77171
L71879 77171
L71935 77142
" />
<path d="M72469 77395
L72469 76805
" />
<path d="M72469 77367
L72413 77395
L72301 77395
L72244 77367
L72216 77339
L72188 77283
L72188 77114
L72216 77058
L72244 77030
L72301 77002
L72413 77002
L72469 77030
" />
<path d="M73201 77086
L73397 77086
" />
<path d="M73482 77395
L73201 77395
L73201 76805
L73482 76805
" />
<path d="M73735 77339
L73763 77367
L73735 77395
L73707 77367
L73735 77339
L73735 77395
" />
<path d="M74016 77395
L74016 76805
L74157 76805
L74241 76833
L74297 76889
L74325 76946
L74354 77058
L74354 77142
L74325 77255
L74297 77311
L74241 77367
L74157 77395
L74016 77395
" />
<path d="M74607 77339
L74635 77367
L74607 77395
L74579 77367
L74607 77339
L74607 77395
" />
<path d="M74860 77227
L75141 77227
" />
<path d="M74804 77395
L75000 76805
L75197 77395
" />
<path d="M75394 77339
L75422 77367
L75394 77395
L75366 77367
L75394 77339
L75394 77395
" />
<path d="M76575 77395
L76575 76805
" />
<path d="M76631 77171
L76800 77395
" />
<path d="M76800 77002
L76575 77227
" />
<path d="M77053 77395
L77053 77002
" />
<path d="M77053 76805
L77025 76833
L77053 76861
L77081 76833
L77053 76805
L77053 76861
" />
<path d="M77588 77367
L77531 77395
L77419 77395
L77363 77367
L77334 77339
L77306 77283
L77306 77114
L77334 77058
L77363 77030
L77419 77002
L77531 77002
L77588 77030
" />
<path d="M78094 77395
L78094 77086
L78066 77030
L78009 77002
L77897 77002
L77841 77030
" />
<path d="M78094 77367
L78037 77395
L77897 77395
L77841 77367
L77813 77311
L77813 77255
L77841 77199
L77897 77171
L78037 77171
L78094 77142
" />
<path d="M78628 77395
L78628 76805
" />
<path d="M78628 77367
L78572 77395
L78459 77395
L78403 77367
L78375 77339
L78347 77283
L78347 77114
L78375 77058
L78403 77030
L78459 77002
L78572 77002
L78628 77030
" />
<path d="M79612 77002
L79612 77395
" />
<path d="M79472 76777
L79331 77199
L79697 77199
" />
<path d="M79922 77339
L79950 77367
L79922 77395
L79894 77367
L79922 77339
L79922 77395
" />
<path d="M80315 76805
L80372 76805
L80428 76833
L80456 76861
L80484 76917
L80512 77030
L80512 77171
L80484 77283
L80456 77339
L80428 77367
L80372 77395
L80315 77395
L80259 77367
L80231 77339
L80203 77283
L80175 77171
L80175 77030
L80203 76917
L80231 76861
L80259 76833
L80315 76805
" />
<path d="M80765 77339
L80793 77367
L80765 77395
L80737 77367
L80765 77339
L80765 77395
" />
<path d="M80990 76805
L81384 76805
L81131 77395
" />
<path d="M81609 77171
L82059 77171
" />
<path d="M81834 77395
L81834 76946
" />
<path d="M82593 77395
L82593 76805
" />
<path d="M82593 77367
L82537 77395
L82424 77395
L82368 77367
L82340 77339
L82312 77283
L82312 77114
L82340 77058
L82368 77030
L82424 77002
L82537 77002
L82593 77030
" />
<path d="M82790 77002
L83015 77002
" />
<path d="M82874 77395
L82874 76889
L82903 76833
L82959 76805
L83015 76805
" />
<path d="M83184 77367
L83240 77395
L83352 77395
L83409 77367
L83437 77311
L83437 77283
L83409 77227
L83352 77199
L83268 77199
L83212 77171
L83184 77114
L83184 77086
L83212 77030
L83268 77002
L83352 77002
L83409 77030
" />
<path d="M83943 77002
L83943 77480
L83915 77536
L83887 77564
L83831 77592
L83746 77592
L83690 77564
" />
<path d="M83943 77367
L83887 77395
L83774 77395
L83718 77367
L83690 77339
L83662 77283
L83662 77114
L83690 77058
L83718 77030
L83774 77002
L83887 77002
L83943 77030
" />
<path d="M84534 77395
L84196 77395
" />
<path d="M84365 77395
L84365 76805
L84309 76889
L84252 76946
L84196 76974
" />
<path d="M84787 77171
L85237 77171
" />
<path d="M85827 77395
L85490 77395
" />
<path d="M85658 77395
L85658 76805
L85602 76889
L85546 76946
L85490 76974
" />
</g>
<g style="fill:#000000; fill-opacity:0.0; 
stroke:#000000; stroke-width:39.3701; stroke-opacity:1; 
stroke-linecap:round; stroke-linejoin:round;">
</g>
<g style="fill:#000000; fill-opacity:0.0; 
stroke:#000000; stroke-width:59.0551; stroke-opacity:1; 
stroke-linecap:round; stroke-linejoin:round;">
<path d="M69685 75396
L112205 75396
" />
</g>
<g style="fill:#000000; fill-opacity:0.0; 
stroke:#000000; stroke-width:39.3701; stroke-opacity:1; 
stroke-linecap:round; stroke-linejoin:round;">
</g>
<g style="fill:#000000; fill-opacity:0.0; 
stroke:#000000; stroke-width:118.11; stroke-opacity:1; 
stroke-linecap:round; stroke-linejoin:round;">
<path d="M104022 76293
L103825 76012
" />
<path d="M103684 76293
L103684 75703
L103909 75703
L103965 75731
L103994 75759
L104022 75815
L104022 75899
L103994 75956
L103965 75984
L103909 76012
L103684 76012
" />
<path d="M104500 76265
L104444 76293
L104331 76293
L104275 76265
L104247 76209
L104247 75984
L104275 75928
L104331 75899
L104444 75899
L104500 75928
L104528 75984
L104528 76040
L104247 76096
" />
<path d="M104725 75899
L104865 76293
L105006 75899
" />
<path d="M105231 76237
L105259 76265
L105231 76293
L105203 76265
L105231 76237
L105231 76293
" />
<path d="M105231 75928
L105259 75956
L105231 75984
L105203 75956
L105231 75928
L105231 75984
" />
</g>
<g style="fill:#000000; fill-opacity:0.0; 
stroke:#000000; stroke-width:39.3701; stroke-opacity:1; 
stroke-linecap:round; stroke-linejoin:round;">
</g>
<g style="fill:#000000; fill-opacity:0.0; 
stroke:#000000; stroke-width:59.0551; stroke-opacity:1; 
stroke-linecap:round; stroke-linejoin:round;">
<path d="M70192 76265
L70276 76293
L70417 76293
L70473 76265
L70501 76237
L70529 76181
L70529 76124
L70501 76068
L70473 76040
L70417 76012
L70304 75984
L70248 75956
L70220 75928
L70192 75871
L70192 75815
L70220 75759
L70248 75731
L70304 75703
L70445 75703
L70529 75731
" />
<path d="M70782 76293
L70782 75899
" />
<path d="M70782 75703
L70754 75731
L70782 75759
L70810 75731
L70782 75703
L70782 75759
" />
<path d="M71007 75899
L71316 75899
L71007 76293
L71316 76293
" />
<path d="M71766 76265
L71710 76293
L71598 76293
L71541 76265
L71513 76209
L71513 75984
L71541 75928
L71598 75899
L71710 75899
L71766 75928
L71795 75984
L71795 76040
L71513 76096
" />
<path d="M72048 76237
L72076 76265
L72048 76293
L72019 76265
L72048 76237
L72048 76293
" />
<path d="M72048 75928
L72076 75956
L72048 75984
L72019 75956
L72048 75928
L72048 75984
" />
<path d="M72751 76124
L73032 76124
" />
<path d="M72694 76293
L72891 75703
L73088 76293
" />
<path d="M73538 75899
L73538 76293
" />
<path d="M73397 75674
L73257 76096
L73622 76096
" />
</g>
<g style="fill:#000000; fill-opacity:0.0; 
stroke:#000000; stroke-width:39.3701; stroke-opacity:1; 
stroke-linecap:round; stroke-linejoin:round;">
</g>
<g style="fill:#000000; fill-opacity:0.0; 
stroke:#000000; stroke-width:59.0551; stroke-opacity:1; 
stroke-linecap:round; stroke-linejoin:round;">
<path d="M103684 77395
L103684 76805
" />
<path d="M104219 77395
L104219 76805
" />
<path d="M104219 77367
L104162 77395
L104050 77395
L103994 77367
L103965 77339
L103937 77283
L103937 77114
L103965 77058
L103994 77030
L104050 77002
L104162 77002
L104219 77030
" />
<path d="M104500 77339
L104528 77367
L104500 77395
L104472 77367
L104500 77339
L104500 77395
" />
<path d="M104500 77030
L104528 77058
L104500 77086
L104472 77058
L104500 77030
L104500 77086
" />
<path d="M105540 77395
L105203 77395
" />
<path d="M105372 77395
L105372 76805
L105315 76889
L105259 76946
L105203 76974
" />
<path d="M106215 76777
L105709 77536
" />
<path d="M106721 77395
L106384 77395
" />
<path d="M106553 77395
L106553 76805
L106496 76889
L106440 76946
L106384 76974
" />
</g>
<g style="fill:#000000; fill-opacity:0.0; 
stroke:#000000; stroke-width:39.3701; stroke-opacity:1; 
stroke-linecap:round; stroke-linejoin:round;">
</g>
<g style="fill:#000000; fill-opacity:0.0; 
stroke:#000000; stroke-width:59.0551; stroke-opacity:1; 
stroke-linecap:round; stroke-linejoin:round;">
<path d="M69685 73821
L112205 73821
" />
</g>
<g style="fill:#000000; fill-opacity:0.0; 
stroke:#000000; stroke-width:39.3701; stroke-opacity:1; 
stroke-linecap:round; stroke-linejoin:round;">
</g>
<g style="fill:#000000; fill-opacity:0.0; 
stroke:#000000; stroke-width:157.48; stroke-opacity:1; 
stroke-linecap:round; stroke-linejoin:round;">
<path d="M70257 74099
L70707 74099
" />
<path d="M70384 74886
L70482 74099
" />
<path d="M70871 74886
L70937 74361
" />
<path d="M70970 74099
L70927 74136
L70960 74174
L71002 74136
L70970 74099
L70960 74174
" />
<path d="M71199 74361
L71499 74361
" />
<path d="M71345 74099
L71260 74774
L71288 74849
L71359 74886
L71434 74886
" />
<path d="M71809 74886
L71738 74849
L71710 74774
L71795 74099
" />
<path d="M72413 74849
L72334 74886
L72184 74886
L72113 74849
L72085 74774
L72123 74474
L72169 74399
L72249 74361
L72399 74361
L72469 74399
L72498 74474
L72488 74549
L72104 74624
" />
<path d="M72793 74811
L72826 74849
L72783 74886
L72751 74849
L72793 74811
L72783 74886
" />
<path d="M72844 74399
L72877 74436
L72835 74474
L72802 74436
L72844 74399
L72835 74474
" />
</g>
<g style="fill:#000000; fill-opacity:0.0; 
stroke:#000000; stroke-width:39.3701; stroke-opacity:1; 
stroke-linecap:round; stroke-linejoin:round;">
</g>
<g style="fill:#000000; fill-opacity:0.0; 
stroke:#000000; stroke-width:59.0551; stroke-opacity:1; 
stroke-linecap:round; stroke-linejoin:round;">
<path d="M70417 73070
L70220 73070
" />
<path d="M70220 73380
L70220 72789
L70501 72789
" />
<path d="M70726 73380
L70726 72986
" />
<path d="M70726 72789
L70698 72817
L70726 72845
L70754 72817
L70726 72789
L70726 72845
" />
<path d="M71091 73380
L71035 73352
L71007 73295
L71007 72789
" />
<path d="M71541 73352
L71485 73380
L71373 73380
L71316 73352
L71288 73295
L71288 73070
L71316 73014
L71373 72986
L71485 72986
L71541 73014
L71570 73070
L71570 73127
L71288 73183
" />
<path d="M71823 73323
L71851 73352
L71823 73380
L71795 73352
L71823 73323
L71823 73380
" />
<path d="M71823 73014
L71851 73042
L71823 73070
L71795 73042
L71823 73014
L71823 73070
" />
<path d="M72554 72986
L72554 73577
" />
<path d="M72554 73014
L72610 72986
L72723 72986
L72779 73014
L72807 73042
L72835 73099
L72835 73267
L72807 73323
L72779 73352
L72723 73380
L72610 73380
L72554 73352
" />
<path d="M73172 73380
L73116 73352
L73088 73295
L73088 72789
" />
<path d="M73651 73380
L73651 73070
L73622 73014
L73566 72986
L73454 72986
L73397 73014
" />
<path d="M73651 73352
L73594 73380
L73454 73380
L73397 73352
L73369 73295
L73369 73239
L73397 73183
L73454 73155
L73594 73155
L73651 73127
" />
<path d="M73932 72986
L73932 73380
" />
<path d="M73932 73042
L73960 73014
L74016 72986
L74100 72986
L74157 73014
L74185 73070
L74185 73380
" />
<path d="M74382 72986
L74607 72986
" />
<path d="M74466 72789
L74466 73295
L74494 73352
L74550 73380
L74607 73380
" />
<path d="M74775 73352
L74832 73380
L74944 73380
L75000 73352
L75028 73295
L75028 73267
L75000 73211
L74944 73183
L74860 73183
L74804 73155
L74775 73099
L74775 73070
L74804 73014
L74860 72986
L74944 72986
L75000 73014
" />
<path d="M75282 73323
L75310 73352
L75282 73380
L75253 73352
L75282 73323
L75282 73380
" />
<path d="M75563 73380
L75563 72789
" />
<path d="M75619 73155
L75788 73380
" />
<path d="M75788 72986
L75563 73211
" />
<path d="M76041 73380
L76041 72986
" />
<path d="M76041 72789
L76013 72817
L76041 72845
L76069 72817
L76041 72789
L76041 72845
" />
<path d="M76575 73352
L76519 73380
L76406 73380
L76350 73352
L76322 73323
L76294 73267
L76294 73099
L76322 73042
L76350 73014
L76406 72986
L76519 72986
L76575 73014
" />
<path d="M77081 73380
L77081 73070
L77053 73014
L76997 72986
L76885 72986
L76828 73014
" />
<path d="M77081 73352
L77025 73380
L76885 73380
L76828 73352
L76800 73295
L76800 73239
L76828 73183
L76885 73155
L77025 73155
L77081 73127
" />
<path d="M77616 73380
L77616 72789
" />
<path d="M77616 73352
L77559 73380
L77447 73380
L77391 73352
L77363 73323
L77334 73267
L77334 73099
L77363 73042
L77391 73014
L77447 72986
L77559 72986
L77616 73014
" />
<path d="M77756 73436
L78206 73436
" />
<path d="M78347 72986
L78347 73577
" />
<path d="M78347 73014
L78403 72986
L78516 72986
L78572 73014
L78600 73042
L78628 73099
L78628 73267
L78600 73323
L78572 73352
L78516 73380
L78403 73380
L78347 73352
" />
<path d="M79134 73352
L79078 73380
L78965 73380
L78909 73352
L78881 73323
L78853 73267
L78853 73099
L78881 73042
L78909 73014
L78965 72986
L79078 72986
L79134 73014
" />
<path d="M79387 73380
L79387 72789
" />
<path d="M79387 73014
L79444 72986
L79556 72986
L79612 73014
L79640 73042
L79669 73099
L79669 73267
L79640 73323
L79612 73352
L79556 73380
L79444 73380
L79387 73352
" />
</g>
<g style="fill:#000000; fill-opacity:0.0; 
stroke:#000000; stroke-width:39.3701; stroke-opacity:1; 
stroke-linecap:round; stroke-linejoin:round;">
</g>
<g style="fill:#000000; fill-opacity:0.0; 
stroke:#000000; stroke-width:59.0551; stroke-opacity:1; 
stroke-linecap:round; stroke-linejoin:round;">
<path d="M69685 71459
L112205 71459
" />
</g>
<g style="fill:#000000; fill-opacity:0.0; 
stroke:#000000; stroke-width:39.3701; stroke-opacity:1; 
stroke-linecap:round; stroke-linejoin:round;">
</g>
<g style="fill:#000000; fill-opacity:0.0; 
stroke:#000000; stroke-width:59.0551; stroke-opacity:1; 
stroke-linecap:round; stroke-linejoin:round;">
<path d="M70192 72289
L70276 72317
L70417 72317
L70473 72289
L70501 72260
L70529 72204
L70529 72148
L70501 72092
L70473 72064
L70417 72036
L70304 72007
L70248 71979
L70220 71951
L70192 71895
L70192 71839
L70220 71782
L70248 71754
L70304 71726
L70445 71726
L70529 71754
" />
<path d="M70782 72317
L70782 71726
" />
<path d="M71035 72317
L71035 72007
L71007 71951
L70951 71923
L70867 71923
L70810 71951
L70782 71979
" />
<path d="M71541 72289
L71485 72317
L71373 72317
L71316 72289
L71288 72232
L71288 72007
L71316 71951
L71373 71923
L71485 71923
L71541 71951
L71570 72007
L71570 72064
L71288 72120
" />
<path d="M72048 72289
L71991 72317
L71879 72317
L71823 72289
L71795 72232
L71795 72007
L71823 71951
L71879 71923
L71991 71923
L72048 71951
L72076 72007
L72076 72064
L71795 72120
" />
<path d="M72244 71923
L72469 71923
" />
<path d="M72329 71726
L72329 72232
L72357 72289
L72413 72317
L72469 72317
" />
<path d="M72666 72260
L72694 72289
L72666 72317
L72638 72289
L72666 72260
L72666 72317
" />
<path d="M72666 71951
L72694 71979
L72666 72007
L72638 71979
L72666 71951
L72666 72007
" />
</g>
<g style="fill:#000000; fill-opacity:0.0; 
stroke:#000000; stroke-width:39.3701; stroke-opacity:1; 
stroke-linecap:round; stroke-linejoin:round;">
</g>
<g style="fill:#000000; fill-opacity:0.0; 
stroke:#000000; stroke-width:59.0551; stroke-opacity:1; 
stroke-linecap:round; stroke-linejoin:round;">
<path d="M77559 75396
L77559 76577
" />
</g>
<g style="fill:#000000; fill-opacity:0.0; 
stroke:#000000; stroke-width:39.3701; stroke-opacity:1; 
stroke-linecap:round; stroke-linejoin:round;">
</g>
<g style="fill:#000000; fill-opacity:0.0; 
stroke:#000000; stroke-width:59.0551; stroke-opacity:1; 
stroke-linecap:round; stroke-linejoin:round;">
<path d="M102756 75396
L102756 77955
" />
</g>
<g style="fill:#C2C200; fill-opacity:0.0; 
stroke:#C2C200; stroke-width:59.0551; stroke-opacity:1; 
stroke-linecap:round; stroke-linejoin:round;">
<path d="M54396 36711
L54396 36317
L54490 36317
L54546 36336
L54584 36374
L54603 36411
L54621 36486
L54621 36542
L54603 36617
L54584 36655
L54546 36692
L54490 36711
L54396 36711
" />
<path d="M54209 38178
L54209 37784
L54303 37784
L54359 37803
L54396 37840
L54415 37878
L54434 37953
L54434 38009
L54415 38084
L54396 38121
L54359 38159
L54303 38178
L54209 38178
" />
<path d="M54809 38178
L54584 38178
" />
<path d="M54696 38178
L54696 37784
L54659 37840
L54621 37878
L54584 37896
" />
<path d="M52396 46211
L52396 45817
L52490 45817
L52546 45836
L52584 45874
L52603 45911
L52621 45986
L52621 46042
L52603 46117
L52584 46155
L52546 46192
L52490 46211
L52396 46211
" />
<path d="M52209 47678
L52209 47284
L52303 47284
L52359 47303
L52396 47340
L52415 47378
L52434 47453
L52434 47509
L52415 47584
L52396 47621
L52359 47659
L52303 47678
L52209 47678
" />
<path d="M52584 47321
L52603 47303
L52640 47284
L52734 47284
L52771 47303
L52790 47321
L52809 47359
L52809 47396
L52790 47453
L52565 47678
L52809 47678
" />
<path d="M51545 39815
L51545 39422
L51676 39703
L51808 39422
L51808 39815
" />
<path d="M52051 39815
L52014 39797
L51995 39778
L51976 39740
L51976 39628
L51995 39590
L52014 39572
L52051 39553
L52107 39553
L52145 39572
L52164 39590
L52182 39628
L52182 39740
L52164 39778
L52145 39797
L52107 39815
L52051 39815
" />
<path d="M52295 39553
L52445 39553
" />
<path d="M52351 39422
L52351 39759
L52370 39797
L52407 39815
L52445 39815
" />
<path d="M52632 39815
L52595 39797
L52576 39778
L52557 39740
L52557 39628
L52576 39590
L52595 39572
L52632 39553
L52689 39553
L52726 39572
L52745 39590
L52764 39628
L52764 39740
L52745 39778
L52726 39797
L52689 39815
L52632 39815
" />
<path d="M52932 39815
L52932 39553
" />
<path d="M52932 39628
L52951 39590
L52970 39572
L53007 39553
L53045 39553
" />
<path d="M53082 39853
L53382 39853
" />
<path d="M53476 39815
L53476 39422
L53570 39422
L53626 39440
L53664 39478
L53682 39515
L53701 39590
L53701 39647
L53682 39722
L53664 39759
L53626 39797
L53570 39815
L53476 39815
" />
<path d="M54095 39778
L54076 39797
L54020 39815
L53982 39815
L53926 39797
L53889 39759
L53870 39722
L53851 39647
L53851 39590
L53870 39515
L53889 39478
L53926 39440
L53982 39422
L54020 39422
L54076 39440
L54095 39459
" />
<path d="M51545 50315
L51545 49922
L51676 50203
L51808 49922
L51808 50315
" />
<path d="M52051 50315
L52014 50297
L51995 50278
L51976 50240
L51976 50128
L51995 50090
L52014 50072
L52051 50053
L52107 50053
L52145 50072
L52164 50090
L52182 50128
L52182 50240
L52164 50278
L52145 50297
L52107 50315
L52051 50315
" />
<path d="M52295 50053
L52445 50053
" />
<path d="M52351 49922
L52351 50259
L52370 50297
L52407 50315
L52445 50315
" />
<path d="M52632 50315
L52595 50297
L52576 50278
L52557 50240
L52557 50128
L52576 50090
L52595 50072
L52632 50053
L52689 50053
L52726 50072
L52745 50090
L52764 50128
L52764 50240
L52745 50278
L52726 50297
L52689 50315
L52632 50315
" />
<path d="M52932 50315
L52932 50053
" />
<path d="M52932 50128
L52951 50090
L52970 50072
L53007 50053
L53045 50053
" />
<path d="M53082 50353
L53382 50353
" />
<path d="M53476 50315
L53476 49922
L53570 49922
L53626 49940
L53664 49978
L53682 50015
L53701 50090
L53701 50147
L53682 50222
L53664 50259
L53626 50297
L53570 50315
L53476 50315
" />
<path d="M54095 50278
L54076 50297
L54020 50315
L53982 50315
L53926 50297
L53889 50259
L53870 50222
L53851 50147
L53851 50090
L53870 50015
L53889 49978
L53926 49940
L53982 49922
L54020 49922
L54076 49940
L54095 49959
" />
<path d="M50502 43331
L50484 43368
L50446 43406
L50390 43462
L50371 43499
L50371 43537
" />
<path d="M50465 43518
L50446 43556
L50409 43593
L50334 43612
L50203 43612
L50128 43593
L50090 43556
L50071 43518
L50071 43443
L50090 43406
L50128 43368
L50203 43349
L50334 43349
L50409 43368
L50446 43406
L50465 43443
L50465 43518
" />
<path d="M50502 43274
L50502 42974
" />
<path d="M50465 42881
L50071 42881
L50465 42656
L50071 42656
" />
<path d="M50465 42468
L50071 42468
L50071 42318
L50090 42281
L50109 42262
L50146 42243
L50203 42243
L50240 42262
L50259 42281
L50278 42318
L50278 42468
" />
<path d="M50465 42074
L50071 42074
L50465 41850
L50071 41850
" />
<path d="M50502 41756
L50502 41456
" />
<path d="M50259 41231
L50278 41175
L50296 41156
L50334 41137
L50390 41137
L50428 41156
L50446 41175
L50465 41212
L50465 41362
L50071 41362
L50071 41231
L50090 41193
L50109 41175
L50146 41156
L50184 41156
L50221 41175
L50240 41193
L50259 41231
L50259 41362
" />
<path d="M50428 40743
L50446 40762
L50465 40818
L50465 40856
L50446 40912
L50409 40950
L50371 40968
L50296 40987
L50240 40987
L50165 40968
L50128 40950
L50090 40912
L50071 40856
L50071 40818
L50090 40762
L50109 40743
" />
<path d="M50259 40575
L50259 40443
" />
<path d="M50465 40387
L50465 40575
L50071 40575
L50071 40387
" />
<path d="M47987 42037
L47968 42074
L47931 42112
L47874 42168
L47856 42206
L47856 42243
" />
<path d="M47949 42224
L47931 42262
L47893 42299
L47818 42318
L47687 42318
L47612 42299
L47574 42262
L47556 42224
L47556 42149
L47574 42112
L47612 42074
L47687 42056
L47818 42056
L47893 42074
L47931 42112
L47949 42149
L47949 42224
" />
<path d="M47949 41681
L47949 41906
" />
<path d="M47949 41793
L47556 41793
L47612 41831
L47649 41868
L47668 41906
" />
<path d="M50502 53831
L50484 53868
L50446 53906
L50390 53962
L50371 53999
L50371 54037
" />
<path d="M50465 54018
L50446 54056
L50409 54093
L50334 54112
L50203 54112
L50128 54093
L50090 54056
L50071 54018
L50071 53943
L50090 53906
L50128 53868
L50203 53849
L50334 53849
L50409 53868
L50446 53906
L50465 53943
L50465 54018
" />
<path d="M50502 53774
L50502 53474
" />
<path d="M50465 53381
L50071 53381
L50465 53156
L50071 53156
" />
<path d="M50465 52968
L50071 52968
L50071 52818
L50090 52781
L50109 52762
L50146 52743
L50203 52743
L50240 52762
L50259 52781
L50278 52818
L50278 52968
" />
<path d="M50465 52574
L50071 52574
L50465 52350
L50071 52350
" />
<path d="M50502 52256
L50502 51956
" />
<path d="M50259 51731
L50278 51675
L50296 51656
L50334 51637
L50390 51637
L50428 51656
L50446 51675
L50465 51712
L50465 51862
L50071 51862
L50071 51731
L50090 51693
L50109 51675
L50146 51656
L50184 51656
L50221 51675
L50240 51693
L50259 51731
L50259 51862
" />
<path d="M50428 51243
L50446 51262
L50465 51318
L50465 51356
L50446 51412
L50409 51450
L50371 51468
L50296 51487
L50240 51487
L50165 51468
L50128 51450
L50090 51412
L50071 51356
L50071 51318
L50090 51262
L50109 51243
" />
<path d="M50259 51075
L50259 50943
" />
<path d="M50465 50887
L50465 51075
L50071 51075
L50071 50887
" />
<path d="M47987 52537
L47968 52574
L47931 52612
L47874 52668
L47856 52706
L47856 52743
" />
<path d="M47949 52724
L47931 52762
L47893 52799
L47818 52818
L47687 52818
L47612 52799
L47574 52762
L47556 52724
L47556 52649
L47574 52612
L47612 52574
L47687 52556
L47818 52556
L47893 52574
L47931 52612
L47949 52649
L47949 52724
" />
<path d="M47593 52406
L47574 52387
L47556 52350
L47556 52256
L47574 52218
L47593 52200
L47631 52181
L47668 52181
L47724 52200
L47949 52425
L47949 52181
" />
<path d="M43993 42052
L44237 42052
L44106 42202
L44162 42202
L44200 42220
L44218 42239
L44237 42277
L44237 42370
L44218 42408
L44200 42427
L44162 42445
L44050 42445
L44012 42427
L43993 42408
" />
<path d="M44368 42052
L44612 42052
L44481 42202
L44537 42202
L44574 42220
L44593 42239
L44612 42277
L44612 42370
L44593 42408
L44574 42427
L44537 42445
L44425 42445
L44387 42427
L44368 42408
" />
<path d="M44856 42052
L44893 42052
L44931 42070
L44949 42089
L44968 42127
L44987 42202
L44987 42295
L44968 42370
L44949 42408
L44931 42427
L44893 42445
L44856 42445
L44818 42427
L44799 42408
L44781 42370
L44762 42295
L44762 42202
L44781 42127
L44799 42089
L44818 42070
L44856 42052
" />
<path d="M43993 52552
L44237 52552
L44106 52702
L44162 52702
L44200 52720
L44218 52739
L44237 52777
L44237 52870
L44218 52908
L44200 52927
L44162 52945
L44050 52945
L44012 52927
L43993 52908
" />
<path d="M44368 52552
L44612 52552
L44481 52702
L44537 52702
L44574 52720
L44593 52739
L44612 52777
L44612 52870
L44593 52908
L44574 52927
L44537 52945
L44425 52945
L44387 52927
L44368 52908
" />
<path d="M44856 52552
L44893 52552
L44931 52570
L44949 52589
L44968 52627
L44987 52702
L44987 52795
L44968 52870
L44949 52908
L44931 52927
L44893 52945
L44856 52945
L44818 52927
L44799 52908
L44781 52870
L44762 52795
L44762 52702
L44781 52627
L44799 52589
L44818 52570
L44856 52552
" />
</g>
<g style="fill:#C2C200; fill-opacity:0.0; 
stroke:#C2C200; stroke-width:39.3701; stroke-opacity:1; 
stroke-linecap:round; stroke-linejoin:round;">
<path d="M56374 39049
L56374 36950
" />
<path d="M56374 36950
L52625 36950
" />
<path d="M52625 36950
L52625 39049
" />
<path d="M52625 39049
L56374 39049
" />
<path d="M57000 38000
L56374 38000
" />
<path d="M52000 38000
L52625 38000
" />
<path d="M55811 39049
L55811 36950
" />
<path d="M54374 48549
L54374 46450
" />
<path d="M54374 46450
L50625 46450
" />
<path d="M50625 46450
L50625 48549
" />
<path d="M50625 48549
L54374 48549
" />
<path d="M55000 47500
L54374 47500
" />
<path d="M50000 47500
L50625 47500
" />
<path d="M53811 48549
L53811 46450
" />
<path d="M48212 43574
L49492 43574
" />
<path d="M49492 43574
L49492 40425
" />
<path d="M49492 40425
L48212 40425
" />
<path d="M48212 40425
L48212 43574
" />
<path d="M48212 42629
L49492 42629
" />
<path d="M48212 41370
L49492 41370
" />
<path d="M48212 54074
L49492 54074
" />
<path d="M49492 54074
L49492 50925
" />
<path d="M49492 50925
L48212 50925
" />
<path d="M48212 50925
L48212 54074
" />
<path d="M48212 53129
L49492 53129
" />
<path d="M48212 51870
L49492 51870
" />
<path d="M45208 43314
L45208 42685
" />
<path d="M45208 42685
L43791 42685
" />
<path d="M43791 42685
L43791 43314
" />
<path d="M43791 43314
L45208 43314
" />
<path d="M46000 43000
L45208 43000
" />
<path d="M43000 43000
L43791 43000
" />
<path d="M45208 53814
L45208 53185
" />
<path d="M45208 53185
L43791 53185
" />
<path d="M43791 53185
L43791 53814
" />
<path d="M43791 53814
L45208 53814
" />
<path d="M46000 53500
L45208 53500
" />
<path d="M43000 53500
L43791 53500
" />
</g> 
</svg>
